<svg xmlns="http://www.w3.org/2000/svg" viewBox="0 0 150 150">
<!-- SVG created with Arrow, by QuiverAI (https://quiver.ai) -->
  <style type="text/css">.cls-0 {fill:#020203;}</style>
  <path class="cls-0" d="m99 56-0.8-0.7c4.5-4 3.4-4.1 6-8.6l10.8-14.7c2.8-4.4 4-13 10-15.7 1.6 2.7-2.5 10.5-2.7 10.8 2.7-1.8 3.3-8.2 4.6-8.1 3.6 5.7-4.1 13.6-10.8 24.7 4.4-5.6 8.3-14.4 15.9-14.8l1.1 0.7-17.7 20.4c5.6-3.3 11.1-15 14.4-15.1s0.9 2.6 2.2 5.1c1.3-0.4-3 4.3-8 8.5l-6.7 3.8c2.2-0.9 13.1-7.2 15.7-6.7-0.6 1.4-3.3 1.9-6 3.1h5.8l-7.2 2.7c1.2-0.3 9.5-1 11.4 0.1-3.6 1.7-9.9 0.8-17.7 3.6l11.7-1.2c8.4 0.1 2.9 1-2.9 2.3l2.9 0.8h-3.7l5.7 2.7c2.4 1.1 0.4 2.3-2 1.6 0.9 1.5 0.5 1.9-1.4 2.8 2.6 0.6 2.6 2.7-1.1 2.9l0.5 1c-0.6 1.1-2.3 1.5-4.7 1.8 3.8 0.9 4.7 2 0.4 3.3-0.6-0.1-1 1.3-4.3 3.5l-1.1 0.2 0.3 0.7c-4.2 2.5-6.7 2.5-8.2 2.5 3 1.1 3.6 2.7 0.5 2.3l1.6 1.4v0.7c-1.2 0.1-2.8 0.1-4-0.5v0.9c-1.2 0.6-5.2-1.4-9.5-2.3l3.9 1.8c2.6 1.3 16.1 3.2 18.9 6.8 0.9 1.4-8.9-3.2-18.4-5.1l0.9 1 10.2 3.2 5.6 3-13.4-2.7 9.3 3.1c5.5 2.4 5.9 3.9 4.4 3-2.3-0.8-10.4-3.4-15.4-4.6 2.9 1.1 11.5 4 13.6 4.8-2.8-0.2-10-2.4-10.1-1.8l-7-1.8c-0.1 1.3 8 5 7.6 6.4l-0.8 1.1 9.2 4.7c3.2 1.2-0.4 1.5 3.1 7.6 2.7 4.9 5 12.1 8.7 15.4l9 7.4-4.3-1.9 4.1 6.6-5-6c-2-2.1-5.4-4-6.1-5.6-6.4-11.8-8.6-19.1-10.1-20.5-2.6-2.7-8.9-5.9-13.8-7.4 2 2.4 4.9 3 3.5 4 0.3 0.6 5.8 5.2 5.8 5.2 2.1 2 4.5 1.2 5.2 5.2 0.5 1.6 3.3 6.8 4.4 7.6 3.3 5.2 6.1 10 10.6 12l5.5 8c-0.7 1.9-5.2-4.6-5.5-4.6l1.9 4.1-11.5-14.9c-4.1-5-3.9-8.2-9.4-13-1.1-1.7-8.5-9-8.7-8.6l0.9 1.4c-1.7-1.8-8.3-4.8-9.5-6-3.8-3.5-6.5-5-10.4-8.2-5.5-1.8-11 0.6-17.5-7.5-2-2.3-9.4-6.1-9.4-6.3-5.4-1.9-8.5-3.4-15.1-10-4.3-5.3-8-9.5-12.4-10.4-1 0-2.4-0.8-2.6-0.9l-20.3-1.5c0-0.7 6-1.9 9.5-2.2 4 0 7 0.7 10.3-1.5 2.6-1.9 7.5-0.8 9.7 1 2.8 2 5.3 4.2 7.3 10.1 0.7 3.1 2.1 3.6 7.5 5.1 5.1 1.5 7.1-0.6 14 1l1.8 0.8c1.2-0.3 1.4-2.3 1.4-2.3 0.5-1.7-0.6-3.6-0.1-7.6 0.3-5.4-6.2-12.5-6.6-14.6-0.9-1.9-2.5-4.4-3.9-6.8-2.9-7.7-6.1-12.8-7-19.5-1-6.6-3.5-12.1-4.4-13.5l0.5-1.5 0.9-0.1 2 2.4-0.4-2.9c4.8 1.4 8.5 7.6 8.5 13.6v3.1l0.5 0.2c0.3-1.8-1.2-7.5 1.9-8.4 0.9-0.6 4.5 8 5.6 9.6l0.9 4.8c0.1-1.9 1-7.3 2.6-7.3 4.3 0.8 3.3 8.3 0.7 15 2.1-1.7 3.5-6.2 6.2-5.6 0.6 0.9-0.4 4.1-2.9 6.9 5.8-3 9.8-1.5 9.5 0.2l-1.2 1c2.3 0 4.1 1.4 4.6 2.8 3 0.2 3.5 3.2 2.9 3.2l-2.8-0.5 2.9 1.8 0.6 0.7-0.2 0.3c1.6 0 3.5 2.3 2.2 2.7l-2.6 0.4 4.4 0.9 0.7 0.7c-0.6 1-2.1 0.8-4.1 0.8l3.4 1.6 2.6 0.6-0.9 1.4 0.9 1zm-43.6-40.4c0.5-1.2-1.5-5.2-1.5-5.2l1.5 5.2z"/>
</svg>